<mxfile host="app.diagrams.net" modified="2021-02-07T18:18:58.132Z" agent="5.0 (Windows NT 10.0; Win64; x64) AppleWebKit/537.36 (KHTML, like Gecko) Chrome/88.0.4324.146 Safari/537.36" etag="-aWJ_q-R5FjNRPP4jgqV" version="14.2.9" type="github">
  <diagram id="BdLhvHQuExMGk_WIgmUb" name="Page-1">
    <mxGraphModel dx="868" dy="393" grid="1" gridSize="10" guides="1" tooltips="1" connect="1" arrows="1" fold="1" page="1" pageScale="1" pageWidth="850" pageHeight="1100" math="0" shadow="0">
      <root>
        <mxCell id="0" />
        <mxCell id="1" parent="0" />
        <mxCell id="mSrBGK9rT0nLxttDfopO-1" value="main page" style="shape=umlLifeline;perimeter=lifelinePerimeter;container=1;collapsible=0;recursiveResize=0;rounded=0;shadow=0;strokeWidth=1;" vertex="1" parent="1">
          <mxGeometry x="63" y="530" width="100" height="370" as="geometry" />
        </mxCell>
        <mxCell id="mSrBGK9rT0nLxttDfopO-2" value="" style="points=[];perimeter=orthogonalPerimeter;rounded=0;shadow=0;strokeWidth=1;" vertex="1" parent="mSrBGK9rT0nLxttDfopO-1">
          <mxGeometry x="45" y="80" width="10" height="290" as="geometry" />
        </mxCell>
        <mxCell id="mSrBGK9rT0nLxttDfopO-3" value="charging processes" style="shape=umlLifeline;perimeter=lifelinePerimeter;container=1;collapsible=0;recursiveResize=0;rounded=0;shadow=0;strokeWidth=1;" vertex="1" parent="1">
          <mxGeometry x="243" y="530" width="115" height="523" as="geometry" />
        </mxCell>
        <mxCell id="mSrBGK9rT0nLxttDfopO-4" value="" style="points=[];perimeter=orthogonalPerimeter;rounded=0;shadow=0;strokeWidth=1;" vertex="1" parent="mSrBGK9rT0nLxttDfopO-3">
          <mxGeometry x="45" y="60" width="10" height="40" as="geometry" />
        </mxCell>
        <mxCell id="mSrBGK9rT0nLxttDfopO-5" value="return" style="verticalAlign=bottom;endArrow=open;dashed=1;endSize=8;shadow=0;strokeWidth=1;" edge="1" parent="1">
          <mxGeometry x="-0.1244" relative="1" as="geometry">
            <mxPoint x="299" y="987" as="targetPoint" />
            <mxPoint as="offset" />
            <mxPoint x="917" y="987" as="sourcePoint" />
          </mxGeometry>
        </mxCell>
        <mxCell id="mSrBGK9rT0nLxttDfopO-6" value="user can " style="verticalAlign=bottom;endArrow=block;entryX=-0.2;entryY=0.55;shadow=0;strokeWidth=1;entryDx=0;entryDy=0;entryPerimeter=0;" edge="1" parent="1" source="mSrBGK9rT0nLxttDfopO-2" target="mSrBGK9rT0nLxttDfopO-4">
          <mxGeometry x="-0.0353" y="10" relative="1" as="geometry">
            <mxPoint x="218" y="610" as="sourcePoint" />
            <mxPoint as="offset" />
          </mxGeometry>
        </mxCell>
        <mxCell id="mSrBGK9rT0nLxttDfopO-7" value="employee" style="shape=umlActor;verticalLabelPosition=bottom;labelBackgroundColor=#ffffff;verticalAlign=top;html=1;outlineConnect=0;" vertex="1" parent="1">
          <mxGeometry x="13" y="638" width="50" height="120" as="geometry" />
        </mxCell>
        <mxCell id="mSrBGK9rT0nLxttDfopO-8" value="transfering processes" style="shape=umlLifeline;perimeter=lifelinePerimeter;container=1;collapsible=0;recursiveResize=0;rounded=0;shadow=0;strokeWidth=1;" vertex="1" parent="1">
          <mxGeometry x="398" y="530" width="122" height="533" as="geometry" />
        </mxCell>
        <mxCell id="mSrBGK9rT0nLxttDfopO-9" value="" style="points=[];perimeter=orthogonalPerimeter;rounded=0;shadow=0;strokeWidth=1;" vertex="1" parent="mSrBGK9rT0nLxttDfopO-8">
          <mxGeometry x="45" y="110" width="10" height="40" as="geometry" />
        </mxCell>
        <mxCell id="mSrBGK9rT0nLxttDfopO-10" value="or she can" style="verticalAlign=bottom;endArrow=block;shadow=0;strokeWidth=1;entryX=0.1;entryY=0.175;entryDx=0;entryDy=0;entryPerimeter=0;" edge="1" parent="1" source="mSrBGK9rT0nLxttDfopO-1">
          <mxGeometry x="-0.1704" relative="1" as="geometry">
            <mxPoint x="298" y="672" as="sourcePoint" />
            <mxPoint x="444" y="670" as="targetPoint" />
            <mxPoint as="offset" />
          </mxGeometry>
        </mxCell>
        <mxCell id="mSrBGK9rT0nLxttDfopO-11" value="Chargr Meters" style="shape=umlLifeline;perimeter=lifelinePerimeter;container=1;collapsible=0;recursiveResize=0;rounded=0;shadow=0;strokeWidth=1;" vertex="1" parent="1">
          <mxGeometry x="705" y="530" width="115" height="534" as="geometry" />
        </mxCell>
        <mxCell id="mSrBGK9rT0nLxttDfopO-12" value="" style="points=[];perimeter=orthogonalPerimeter;rounded=0;shadow=0;strokeWidth=1;" vertex="1" parent="mSrBGK9rT0nLxttDfopO-11">
          <mxGeometry x="52.5" y="280" width="10" height="70" as="geometry" />
        </mxCell>
        <mxCell id="mSrBGK9rT0nLxttDfopO-13" value="database" style="shape=umlLifeline;perimeter=lifelinePerimeter;container=1;collapsible=0;recursiveResize=0;rounded=0;shadow=0;strokeWidth=1;" vertex="1" parent="1">
          <mxGeometry x="860" y="530" width="115" height="520" as="geometry" />
        </mxCell>
        <mxCell id="mSrBGK9rT0nLxttDfopO-14" value="request code entere meter id &#xa;,amount and card id " style="verticalAlign=bottom;endArrow=block;shadow=0;strokeWidth=1;entryX=0.1;entryY=0.175;entryDx=0;entryDy=0;entryPerimeter=0;" edge="1" parent="1">
          <mxGeometry x="0.1321" relative="1" as="geometry">
            <mxPoint x="120" y="750" as="sourcePoint" />
            <mxPoint x="597" y="750" as="targetPoint" />
            <mxPoint as="offset" />
          </mxGeometry>
        </mxCell>
        <mxCell id="mSrBGK9rT0nLxttDfopO-15" value="request code" style="shape=umlLifeline;perimeter=lifelinePerimeter;container=1;collapsible=0;recursiveResize=0;rounded=0;shadow=0;strokeWidth=1;" vertex="1" parent="1">
          <mxGeometry x="551" y="530" width="115" height="545" as="geometry" />
        </mxCell>
        <mxCell id="mSrBGK9rT0nLxttDfopO-16" value="" style="points=[];perimeter=orthogonalPerimeter;rounded=0;shadow=0;strokeWidth=1;" vertex="1" parent="mSrBGK9rT0nLxttDfopO-15">
          <mxGeometry x="45" y="200" width="10" height="40" as="geometry" />
        </mxCell>
        <mxCell id="mSrBGK9rT0nLxttDfopO-17" value="" style="endArrow=none;dashed=1;html=1;" edge="1" parent="1">
          <mxGeometry width="50" height="50" relative="1" as="geometry">
            <mxPoint x="120" y="1054" as="sourcePoint" />
            <mxPoint x="120" y="569" as="targetPoint" />
          </mxGeometry>
        </mxCell>
        <mxCell id="mSrBGK9rT0nLxttDfopO-18" value="text" style="verticalAlign=bottom;endArrow=open;dashed=1;endSize=8;shadow=0;strokeWidth=1;" edge="1" parent="1">
          <mxGeometry x="-0.1244" relative="1" as="geometry">
            <mxPoint x="294" y="1050" as="targetPoint" />
            <mxPoint as="offset" />
            <mxPoint x="455" y="1050" as="sourcePoint" />
          </mxGeometry>
        </mxCell>
        <mxCell id="mSrBGK9rT0nLxttDfopO-19" value="text" style="verticalAlign=bottom;endArrow=block;shadow=0;strokeWidth=1;entryX=0.53;entryY=0.921;entryDx=0;entryDy=0;entryPerimeter=0;" edge="1" parent="1" target="mSrBGK9rT0nLxttDfopO-8">
          <mxGeometry x="-0.0409" y="1" relative="1" as="geometry">
            <mxPoint x="301" y="1022" as="sourcePoint" />
            <mxPoint x="447" y="1020" as="targetPoint" />
            <mxPoint as="offset" />
          </mxGeometry>
        </mxCell>
        <mxCell id="mSrBGK9rT0nLxttDfopO-20" value="generate code and save data in topup table" style="verticalAlign=bottom;endArrow=block;shadow=0;strokeWidth=1;entryX=0.1;entryY=0.175;entryDx=0;entryDy=0;entryPerimeter=0;exitX=0.513;exitY=0.406;exitDx=0;exitDy=0;exitPerimeter=0;" edge="1" parent="1" source="mSrBGK9rT0nLxttDfopO-15">
          <mxGeometry x="0.1321" relative="1" as="geometry">
            <mxPoint x="440" y="750" as="sourcePoint" />
            <mxPoint x="917" y="750" as="targetPoint" />
            <mxPoint as="offset" />
          </mxGeometry>
        </mxCell>
        <mxCell id="mSrBGK9rT0nLxttDfopO-21" value="return code then you can charge it" style="verticalAlign=bottom;endArrow=open;dashed=1;endSize=8;shadow=0;strokeWidth=1;" edge="1" parent="1">
          <mxGeometry x="0.1392" y="-5" relative="1" as="geometry">
            <mxPoint x="607.5" y="714.5" as="targetPoint" />
            <mxPoint x="917.5" y="714.5" as="sourcePoint" />
            <mxPoint as="offset" />
          </mxGeometry>
        </mxCell>
        <mxCell id="mSrBGK9rT0nLxttDfopO-22" value="user can request to charge meters which&#xa; has otp with status 0" style="verticalAlign=bottom;endArrow=block;shadow=0;strokeWidth=1;" edge="1" parent="1">
          <mxGeometry x="0.1321" relative="1" as="geometry">
            <mxPoint x="120" y="830" as="sourcePoint" />
            <mxPoint x="760" y="829" as="targetPoint" />
            <mxPoint as="offset" />
          </mxGeometry>
        </mxCell>
        <mxCell id="mSrBGK9rT0nLxttDfopO-23" value="update topup data in topup&#xa;table" style="verticalAlign=bottom;endArrow=block;shadow=0;strokeWidth=1;entryX=0.496;entryY=0.581;entryDx=0;entryDy=0;entryPerimeter=0;" edge="1" parent="1" target="mSrBGK9rT0nLxttDfopO-13">
          <mxGeometry x="0.1321" relative="1" as="geometry">
            <mxPoint x="768" y="832" as="sourcePoint" />
            <mxPoint x="927" y="760" as="targetPoint" />
            <mxPoint as="offset" />
          </mxGeometry>
        </mxCell>
        <mxCell id="mSrBGK9rT0nLxttDfopO-24" value="the meter chaeged" style="verticalAlign=bottom;endArrow=open;dashed=1;endSize=8;shadow=0;strokeWidth=1;entryX=0.487;entryY=0.629;entryDx=0;entryDy=0;entryPerimeter=0;exitX=0.487;exitY=0.648;exitDx=0;exitDy=0;exitPerimeter=0;" edge="1" parent="1" source="mSrBGK9rT0nLxttDfopO-13" target="mSrBGK9rT0nLxttDfopO-11">
          <mxGeometry x="0.1392" y="-5" relative="1" as="geometry">
            <mxPoint x="607.5" y="860" as="targetPoint" />
            <mxPoint x="917.5" y="860" as="sourcePoint" />
            <mxPoint as="offset" />
          </mxGeometry>
        </mxCell>
      </root>
    </mxGraphModel>
  </diagram>
</mxfile>
